HIERARCHY
ROOT root
{
	OFFSET 0.000000 0.000000 0.000000
	CHANNELS 6 Xposition Yposition Zposition Zrotation Yrotation Xrotation
	JOINT lhip
	{
		OFFSET 0.058581 -0.082280 -0.017664
		CHANNELS 3 Zrotation Yrotation Xrotation
		JOINT lknee
		{
			OFFSET 0.043451 -0.386469 0.008037
			CHANNELS 3 Zrotation Yrotation Xrotation
			JOINT lankle
			{
				OFFSET -0.014790 -0.426874 -0.037428
				CHANNELS 3 Zrotation Yrotation Xrotation
				JOINT ltoe
				{
					OFFSET 0.041054 -0.060286 0.122042
					CHANNELS 3 Zrotation Yrotation Xrotation
					End Site
					{
						OFFSET 0.000000 0.000000 0.000000
					}
				}
			}
		}
	}
	JOINT rhip
	{
		OFFSET -0.060310 -0.090513 -0.013543
		CHANNELS 3 Zrotation Yrotation Xrotation
		JOINT rknee
		{
			OFFSET -0.043257 -0.383688 -0.004843
			CHANNELS 3 Zrotation Yrotation Xrotation
			JOINT rankle
			{
				OFFSET 0.019056 -0.420046 -0.034562
				CHANNELS 3 Zrotation Yrotation Xrotation
				JOINT rtoe
				{
					OFFSET -0.034840 -0.062106 0.130323
					CHANNELS 3 Zrotation Yrotation Xrotation
					End Site
					{
						OFFSET 0.000000 0.000000 0.000000
					}
				}
			}
		}
	}
	JOINT lowerback
	{
		OFFSET 0.004439 0.124404 -0.038385
		CHANNELS 3 Zrotation Yrotation Xrotation
		JOINT upperback
		{
			OFFSET 0.004488 0.137956 0.026820
			CHANNELS 3 Zrotation Yrotation Xrotation
			JOINT chest
			{
				OFFSET -0.002265 0.056032 0.002855
				CHANNELS 3 Zrotation Yrotation Xrotation
				JOINT lowerneck
				{
					OFFSET -0.013390 0.211636 -0.033468
					CHANNELS 3 Zrotation Yrotation Xrotation
					JOINT upperneck
					{
						OFFSET 0.010113 0.088937 0.050410
						CHANNELS 3 Zrotation Yrotation Xrotation
						End Site
						{
							OFFSET 0.000000 0.000000 0.000000
						}
					}
				}
				JOINT lclavicle
				{
					OFFSET 0.071702 0.114000 -0.018898
					CHANNELS 3 Zrotation Yrotation Xrotation
					JOINT lshoulder
					{
						OFFSET 0.122921 0.045205 -0.019046
						CHANNELS 3 Zrotation Yrotation Xrotation
						JOINT lelbow
						{
							OFFSET 0.255332 -0.015649 -0.022946
							CHANNELS 3 Zrotation Yrotation Xrotation
							JOINT lwrist
							{
								OFFSET 0.265709 0.012698 -0.007375
								CHANNELS 3 Zrotation Yrotation Xrotation
								End Site
								{
									OFFSET 0.000000 0.000000 0.000000
								}
							}
						}
					}
				}
				JOINT rclavicle
				{
					OFFSET -0.082954 0.112472 -0.023707
					CHANNELS 3 Zrotation Yrotation Xrotation
					JOINT rshoulder
					{
						OFFSET -0.113228 0.046853 -0.008472
						CHANNELS 3 Zrotation Yrotation Xrotation
						JOINT relbow
						{
							OFFSET -0.260127 -0.014369 -0.031269
							CHANNELS 3 Zrotation Yrotation Xrotation
							JOINT rwrist
							{
								OFFSET -0.269108 0.006794 -0.006027
								CHANNELS 3 Zrotation Yrotation Xrotation
								End Site
								{
									OFFSET 0.000000 0.000000 0.000000
								}
							}
						}
					}
				}
			}
		}
	}
}
MOTION
Frames: 14
Frame Time: 0.033333
1.162428 0.192640 0.994634 -97.765713 9.239590 84.434744 6.323629 0.375780 3.691512 -3.192897 -14.008065 13.065412 5.535026 13.432370 -23.901690 0.000000 -0.000000 0.000000 0.144391 -0.262383 -10.381070 0.100893 -7.120872 29.149354 4.462331 -12.225806 -17.060470 0.000000 -0.000000 0.000000 -6.462720 0.752315 11.462693 3.580623 -3.365737 6.109231 1.492944 -2.260895 5.859125 9.389769 -9.208441 11.695521 3.054353 -15.216664 17.090602 -19.001688 7.106302 5.723064 -58.160129 -9.398753 6.494189 11.629996 -30.839952 4.015116 5.431719 -2.431306 -13.785397 21.204802 -4.122883 2.228900 66.955080 1.042696 11.440461 -16.619668 30.449141 0.309064 3.151930 2.079040 -10.482213 
1.160018 0.198172 0.994447 -97.756869 10.188970 84.575773 7.673591 0.464343 3.125847 -3.355879 -14.342575 14.312635 5.539130 13.584359 -24.835816 0.000000 -0.000000 0.000000 -1.652011 -1.196854 -11.225787 0.200551 -6.080196 27.790662 4.829794 -11.430150 -15.414965 0.000000 -0.000000 0.000000 -6.499314 0.982715 11.030185 3.803947 -3.324808 6.188422 1.559008 -2.210568 5.772276 9.523800 -9.359970 11.845224 3.242047 -15.547321 17.445727 -18.744997 7.473331 5.742924 -57.294707 -9.705220 6.503855 11.002125 -31.021298 4.661094 5.655787 -2.917577 -14.149907 21.478197 -4.564801 2.383125 66.411373 1.190485 11.314913 -16.349688 29.743033 0.085472 2.845515 2.210822 -9.993963 
1.156885 0.204310 0.994455 -97.632309 11.148952 84.499236 9.012981 0.589536 2.779668 -3.447577 -14.641111 15.723567 5.472508 13.653578 -25.670632 0.000000 -0.000000 0.000000 -3.548602 -1.725723 -11.456224 0.596307 -4.816864 25.565247 5.142699 -10.405695 -12.065571 0.000000 -0.000000 0.000000 -6.568705 1.196809 10.840351 4.001664 -3.324505 6.269190 1.713651 -2.189100 5.784024 9.700968 -9.748324 11.808482 3.562104 -15.680525 17.480154 -18.432877 7.714230 6.010475 -56.560961 -9.858500 6.366937 10.722472 -31.756396 4.855331 5.448792 -2.625957 -14.273799 21.817112 -4.859986 2.513872 65.748225 1.273613 11.083341 -16.167677 29.434819 -0.692346 3.378240 1.472683 -9.945887 
1.152257 0.211535 0.994618 -97.304658 12.239883 83.929296 10.686117 0.663523 3.209561 -3.663966 -15.260995 16.835051 5.302142 13.665984 -26.283244 0.000000 -0.000000 0.000000 -5.557726 -2.297335 -10.433614 1.138788 -4.082994 22.279346 5.716437 -9.338160 -7.684525 0.000000 -0.000000 0.000000 -6.462461 1.520132 11.274513 4.196016 -3.319730 6.255610 1.925463 -2.286577 5.470469 9.635712 -10.238671 12.274208 4.036872 -15.712055 17.600898 -18.352204 7.873636 6.403744 -55.555503 -9.994409 5.917357 10.350434 -32.242020 4.967875 5.284402 -2.889442 -14.245726 22.277930 -5.024963 2.738458 65.000122 0.980151 10.776096 -15.869133 28.921214 -0.983234 2.844894 1.508266 -8.990267 
1.148067 0.219262 0.994032 -96.717279 13.106332 83.808229 12.049729 0.607121 2.941792 -3.800359 -15.713829 18.222799 5.106081 13.726665 -27.123164 0.000000 -0.000000 0.000000 -7.674787 -3.327400 -10.108911 1.538905 -3.397680 19.445683 6.879383 -8.887082 -4.178065 0.000000 -0.000000 0.000000 -6.646270 1.860795 10.971481 4.430813 -3.535062 6.467738 2.110472 -2.501172 5.505858 9.831421 -10.513903 12.199956 4.220583 -15.754407 17.920543 -18.089297 8.216771 6.592805 -54.638976 -10.552007 5.646946 9.929806 -32.446363 5.066571 5.687203 -3.164683 -14.352852 22.673344 -5.545511 2.672416 64.354284 1.068008 10.730162 -15.482795 28.523730 -1.421163 2.608226 1.831476 -8.528832 
1.143648 0.228636 0.993708 -96.240439 14.106144 83.436274 13.803914 0.757024 3.002831 -3.999570 -16.177749 19.602032 4.640169 13.445368 -28.208018 0.000000 -0.000000 0.000000 -9.342998 -4.429801 -9.452953 1.841327 -2.669765 16.723946 7.664959 -8.015845 -1.588512 0.000000 -0.000000 0.000000 -6.754527 2.160764 10.708167 4.623180 -3.826741 7.232257 2.246352 -2.475385 5.288514 10.147814 -10.467424 12.174060 4.466928 -15.960164 17.973030 -17.761580 8.194247 6.777687 -53.478876 -10.744753 5.240720 9.578632 -32.947053 5.313826 5.542997 -3.511559 -14.479616 23.076844 -5.850568 2.587989 63.986663 0.974576 10.489950 -15.277552 28.416954 -1.599221 2.809971 1.685432 -7.997954 
1.138252 0.238609 0.993157 -95.733369 14.995381 83.178124 15.389957 0.677198 3.196553 -4.130605 -16.892019 20.618156 4.255502 13.605446 -29.023022 0.000000 -0.000000 0.000000 -11.027455 -5.035336 -8.906052 2.246636 -2.194588 14.552050 8.231089 -7.649486 0.811300 0.000000 -0.000000 0.000000 -6.853164 2.462563 11.010167 4.807948 -3.813127 6.641962 2.384290 -2.793444 5.122114 10.227868 -10.746358 12.666045 4.590214 -16.041472 18.469811 -17.520432 8.625028 7.153418 -52.188974 -10.815533 4.833093 8.862814 -33.662439 5.853042 5.457646 -3.568991 -14.400172 23.404318 -6.524692 2.577611 63.486627 0.507502 10.305930 -14.800373 28.451498 -1.657861 2.711930 1.569413 -7.670230 
1.133417 0.249429 0.992383 -95.280543 15.755164 82.925599 16.890443 0.581056 3.366027 -4.263843 -17.572780 21.615641 3.892150 13.736604 -29.788237 0.000000 -0.000000 0.000000 -12.489471 -5.750427 -8.845164 2.378627 -2.284181 13.509825 8.896798 -7.718508 3.165635 0.000000 -0.000000 0.000000 -7.197733 2.567928 10.887597 4.904660 -3.965586 6.788598 2.527581 -2.808203 5.071578 10.496729 -10.601934 12.866003 4.891292 -16.132387 18.542457 -17.250634 8.803272 7.308878 -50.816188 -10.990109 4.401196 8.370637 -34.300981 6.039616 6.195032 -3.672106 -14.222010 23.919505 -6.753076 2.687207 63.092438 0.461238 10.170806 -14.721337 28.429822 -2.079535 1.946295 1.673815 -7.010710 
1.127962 0.262000 0.991212 -94.702878 16.440853 82.830800 18.535125 0.668445 3.532065 -4.333156 -18.081318 22.298237 3.553627 13.462888 -30.349024 0.000000 -0.000000 0.000000 -13.714595 -6.453790 -8.828041 2.500428 -2.040620 12.822267 9.593425 -7.769800 5.821024 0.000000 -0.000000 0.000000 -7.700272 2.730260 10.244166 5.069331 -4.282068 7.353913 2.639879 -2.951138 5.038483 10.685935 -10.570909 13.526564 5.319500 -16.204507 18.300321 -16.948017 8.871590 7.586061 -49.419309 -11.259896 4.044063 7.932365 -34.821855 6.194746 6.334248 -3.692670 -14.284141 24.057917 -7.116783 2.559810 63.090705 0.507593 10.100977 -14.477391 27.828997 -2.289528 2.182947 1.650964 -6.942953 
1.122085 0.274936 0.990075 -93.851489 16.964288 82.495712 19.998778 0.528864 3.928510 -4.509089 -19.045840 22.963688 3.108673 13.623346 -31.092000 0.000000 -0.000000 0.000000 -15.053072 -6.982853 -8.256431 2.868303 -2.095754 12.174588 10.581053 -7.871994 8.285688 0.000000 -0.000000 0.000000 -8.214149 2.797436 10.581042 5.115748 -4.656143 7.307042 2.740619 -3.201922 4.843213 10.890028 -10.493415 13.821435 5.560614 -16.206441 18.675831 -16.681284 8.912295 8.064396 -47.870304 -11.262945 3.458449 7.405060 -35.632716 6.510352 6.162936 -3.668751 -13.727676 24.361810 -7.472335 2.463201 62.822494 0.087355 9.812594 -14.137608 27.866122 -2.365632 2.510903 1.645265 -6.496581 
1.116520 0.289458 0.988371 -93.102612 17.503624 82.452275 21.578635 0.399875 4.051548 -4.504089 -19.712918 23.550158 2.746044 13.535705 -31.441079 0.000000 -0.000000 0.000000 -15.836694 -7.480172 -8.164844 3.071274 -1.892740 11.942616 10.887658 -7.974322 9.488563 0.000000 -0.000000 0.000000 -8.724054 2.861878 10.394446 5.211616 -4.901805 7.463396 2.886650 -3.319373 4.715780 11.040476 -10.464715 14.139365 5.784900 -16.455910 18.911188 -16.358082 8.763785 8.311244 -46.566630 -11.526902 3.074993 6.896888 -36.014095 6.865885 6.243208 -3.942709 -13.618573 24.493036 -7.775725 2.595576 62.619286 -0.338135 9.534611 -13.924488 27.829267 -2.347337 2.686389 1.751423 -6.350210 
1.110415 0.304973 0.986093 -92.275874 17.938006 82.249497 23.132821 0.170931 4.396662 -4.675703 -20.762834 24.032168 2.232061 13.424142 -31.792924 0.000000 -0.000000 0.000000 -16.515733 -8.044092 -7.733216 3.289952 -1.773446 11.585904 11.249913 -8.097977 10.496029 0.000000 -0.000000 0.000000 -9.178355 2.984089 10.241441 5.288638 -5.271170 8.183365 2.979987 -3.509330 4.556108 11.132088 -10.167050 14.355313 6.059071 -16.461783 18.889032 -15.940045 8.529078 8.455279 -45.594736 -11.884982 2.697595 6.714123 -36.345616 6.967215 6.201680 -3.810327 -13.907991 24.387287 -8.069648 2.454410 62.672144 -0.867641 9.287957 -13.768270 27.890686 -2.237581 3.027945 1.571946 -6.607536 
1.101162 0.322241 0.982992 -91.144267 17.976522 82.912237 24.486241 0.189534 4.222334 -4.558721 -21.204000 24.067018 1.993199 12.900300 -32.196370 0.000000 -0.000000 0.000000 -17.394040 -9.253792 -7.485141 3.640369 -2.100435 10.793303 11.772053 -7.942932 11.637115 0.000000 -0.000000 0.000000 -9.993442 3.310145 8.674513 5.276501 -6.093299 8.574116 3.005536 -3.769886 4.736400 11.293991 -10.078658 15.344299 6.469972 -16.473614 18.850482 -15.631078 8.711157 8.751339 -44.481925 -12.429211 2.540691 6.353852 -36.456638 7.119515 6.257051 -3.916929 -14.030591 24.588157 -8.884710 2.781417 62.388077 -1.453688 9.172359 -13.504074 27.947128 -1.753586 3.187139 1.456385 -6.679172 
1.096784 0.339961 0.980209 -91.002507 18.091121 82.521203 25.881265 -0.009311 4.890155 -4.585539 -21.753298 24.231181 1.471767 13.122694 -32.607374 0.000000 -0.000000 0.000000 -17.622715 -8.927877 -7.392898 3.750191 -2.146853 10.586578 12.483478 -8.516058 12.899680 0.000000 -0.000000 0.000000 -10.409537 3.074852 10.085613 5.097560 -5.584677 7.557613 3.142954 -3.792333 4.449091 11.147511 -9.692660 15.537156 6.720128 -16.094460 19.034565 -15.390023 8.803842 8.816150 -43.506568 -12.411679 1.900080 6.031731 -37.295428 7.001274 6.094482 -4.093751 -13.973492 24.489312 -9.111438 2.809204 62.430684 -2.645062 8.937124 -13.576478 28.268421 -2.281251 3.175361 1.449179 -6.319453 
